<svg width="208" height="40" viewBox="0 0 208 40" fill="none" xmlns="http://www.w3.org/2000/svg">
<g id="logo_elamina (2) 5" clip-path="url(#clip0_329_371)">
<path id="Vector" d="M35.1736 0.763045C32.8674 0.763045 30.5572 0.703797 28.251 0.763045C26.5333 0.822293 24.1476 -0.0269218 23.2847 1.15803C22.4219 2.34298 23.0342 4.59439 22.9587 6.37576C22.9229 7.20523 23.1655 7.56072 24.0959 7.56072C29.4996 7.52122 34.9033 7.59626 40.3069 7.52517C43.7861 7.47777 46.5774 5.15526 47.1421 2.13759C47.3329 1.12643 47.1023 0.727497 45.985 0.743296C42.3785 0.798594 38.7761 0.766995 35.1736 0.763045Z" fill="white"/>
<path id="Vector_2" d="M28.1914 40.0123C28.6139 40.0069 29.031 39.9171 29.4179 39.7482C29.8048 39.5794 30.1535 39.3349 30.4432 39.0294C30.733 38.7238 30.9579 38.3635 31.1045 37.9698C31.2512 37.5761 31.3166 37.1571 31.2968 36.7378C31.2997 36.304 31.2143 35.874 31.0458 35.4737C30.8772 35.0735 30.6289 34.7112 30.3158 34.4087C30.0027 34.1061 29.6313 33.8696 29.2238 33.7133C28.8164 33.557 28.3814 33.4841 27.9448 33.499C27.0934 33.5194 26.2832 33.8671 25.6847 34.469C25.0862 35.0709 24.7461 35.88 24.736 36.726C24.7321 38.7207 26.1118 40.0123 28.1914 40.0123Z" fill="white"/>
<path id="Vector_3" d="M41.4003 40.0115C43.3288 40.0115 44.6529 38.6725 44.637 36.7331C44.6428 36.3145 44.5648 35.8989 44.4075 35.5105C44.2503 35.1221 44.0169 34.7686 43.7209 34.4706C43.4249 34.1726 43.0723 33.9359 42.6835 33.7744C42.2947 33.6129 41.8774 33.5298 41.456 33.5298C39.5156 33.4784 38.1836 34.774 38.1597 36.7371C38.1293 37.1701 38.1918 37.6047 38.3431 38.0119C38.4944 38.4192 38.7311 38.7899 39.0375 39.0995C39.3438 39.409 39.7129 39.6504 40.1203 39.8076C40.5276 39.9649 40.9639 40.0344 41.4003 40.0115Z" fill="white"/>
<path id="Vector_4" d="M35.1736 0.762818C38.7761 0.762818 42.3785 0.798366 45.981 0.762818C47.0983 0.762818 47.3289 1.1578 47.1381 2.15711C46.5735 5.17874 43.7821 7.50124 40.303 7.54469C34.8993 7.61579 29.4956 7.54469 24.0919 7.58024C23.1654 7.58024 22.9229 7.2287 22.9547 6.39529C23.0263 4.61391 22.4139 2.3704 23.2808 1.17755C24.1476 -0.0152994 26.5333 0.849715 28.2471 0.782568C30.5413 0.703571 32.8674 0.762818 35.1736 0.762818Z" fill="white"/>
<path id="Vector_5" d="M28.1914 40.0123C26.1118 40.0399 24.7321 38.7325 24.736 36.726C24.7461 35.88 25.0862 35.0709 25.6847 34.469C26.2832 33.8671 27.0934 33.5194 27.9448 33.499C28.3814 33.4841 28.8164 33.557 29.2238 33.7133C29.6313 33.8696 30.0027 34.1061 30.3158 34.4087C30.6289 34.7112 30.8772 35.0735 31.0458 35.4737C31.2143 35.874 31.2997 36.304 31.2968 36.7378C31.3166 37.1571 31.2512 37.5761 31.1045 37.9698C30.9579 38.3635 30.733 38.7238 30.4432 39.0294C30.1535 39.3349 29.8048 39.5794 29.4179 39.7482C29.031 39.9171 28.6139 40.0069 28.1914 40.0123Z" fill="white"/>
<path id="Vector_6" d="M41.4004 40.0117C40.965 40.0333 40.5299 39.9631 40.1238 39.8056C39.7177 39.6481 39.3498 39.4069 39.0444 39.0979C38.739 38.7889 38.5029 38.4191 38.3518 38.0129C38.2007 37.6067 38.138 37.1733 38.1677 36.7412C38.1916 34.7663 39.5236 33.4786 41.464 33.5339C41.8854 33.5339 42.3027 33.6171 42.6915 33.7786C43.0803 33.9401 43.4329 34.1767 43.7289 34.4748C44.0249 34.7728 44.2583 35.1263 44.4155 35.5147C44.5728 35.9031 44.6508 36.3187 44.645 36.7373C44.6529 38.6569 43.3289 40.0117 41.4004 40.0117Z" fill="white"/>
<path id="Vector_7" d="M35.8893 30.6504C40.792 30.6504 45.6947 30.6267 50.6014 30.6504C51.7465 30.6504 52.0805 30.3581 51.83 29.185C51.0944 25.7921 48.4343 23.7658 44.3706 23.7461C37.949 23.7145 31.5235 23.6711 25.1019 23.7816C23.4478 23.8172 22.903 23.2642 22.5889 21.7238C21.5233 16.4152 20.3423 11.1303 19.1216 5.85728C18.4139 2.78431 16.0082 0.761994 13.046 0.698797C9.83716 0.631649 6.62437 0.679047 3.41159 0.698797C2.75712 0.677203 2.11165 0.854782 1.56161 1.20775C1.01157 1.56071 0.583243 2.0722 0.333993 2.67372C0.0968539 3.15398 -0.0214748 3.68352 -0.0111587 4.21834C-0.000842609 4.75317 0.13782 5.27782 0.393306 5.74871C0.648791 6.21959 1.01372 6.6231 1.45777 6.92571C1.90181 7.22832 2.41215 7.42128 2.94637 7.48857C5.23667 7.88355 7.56276 7.71766 9.86102 7.60311C11.5787 7.51622 12.1434 8.13634 12.4654 9.73207C13.5629 15.1276 14.7915 20.5388 16.0281 25.9264C16.7717 29.1613 18.7161 30.6425 22.0322 30.6662C26.6446 30.6609 31.2637 30.6557 35.8893 30.6504Z" fill="white"/>
<path id="Vector_8" d="M35.118 18.4501C37.0862 18.4501 39.0505 18.4501 41.0187 18.4501C42.9869 18.4501 44.1201 17.3995 44.1718 15.7326C44.2235 14.0658 43.1062 12.9322 41.142 12.9125C37.0981 12.8769 33.0503 12.8848 29.0026 12.9125C27.2172 12.9125 26.0363 14.0382 26.0005 15.6221C25.9607 17.281 27.1934 18.4264 29.0503 18.4462C31.0702 18.4659 33.0941 18.4501 35.118 18.4501Z" fill="white"/>
<path id="Vector_9" d="M35.8894 30.6508C31.269 30.6508 26.6487 30.6508 22.0283 30.6508C18.7161 30.6508 16.7677 29.1657 16.0242 25.911C14.7916 20.5393 13.5629 15.128 12.4734 9.72856C12.1514 8.14862 11.5867 7.5127 9.86901 7.59959C7.57473 7.71414 5.24467 7.87213 2.95436 7.48505C2.42015 7.41777 1.90981 7.2248 1.46576 6.92219C1.02172 6.61958 0.656787 6.21607 0.401301 5.74519C0.145816 5.2743 0.007153 4.74965 -0.0031631 4.21483C-0.0134792 3.68 0.104849 3.15046 0.341988 2.6702C0.591238 2.06868 1.01957 1.55719 1.5696 1.20423C2.11964 0.851262 2.76512 0.673684 3.41958 0.695278C6.63237 0.695278 9.84515 0.63603 13.054 0.695278C16.0083 0.758475 18.4099 2.77684 19.1217 5.85377C20.3424 11.1268 21.5074 16.4156 22.5889 21.7203C22.8991 23.2568 23.4398 23.8058 25.0979 23.7781C31.5195 23.6675 37.9451 23.7149 44.3667 23.7426C48.4383 23.7426 51.0945 25.7886 51.8221 29.1973C52.0726 30.3823 51.7346 30.6706 50.5934 30.6627C45.6947 30.6232 40.7921 30.6508 35.8894 30.6508Z" fill="white"/>
<path id="Vector_10" d="M35.118 18.4501C33.0941 18.4501 31.0702 18.4501 29.0503 18.4501C27.1815 18.4501 25.9647 17.2651 26.0005 15.626C26.0363 14.046 27.2172 12.9282 29.0026 12.9164C33.0504 12.8887 37.0942 12.8808 41.142 12.9164C43.1062 12.9164 44.2196 14.0302 44.1718 15.7366C44.1241 17.4429 42.9352 18.4422 41.0187 18.454C39.1022 18.4659 37.0862 18.4501 35.118 18.4501Z" fill="white"/>
<path id="Vector_11" d="M56.1283 0.556641H61.6155V30.6662H56.1283V0.556641Z" fill="white"/>
<path id="Vector_12" d="M82.7412 8.94241H88.2283V30.6665H82.7412V28.3717C81.8111 29.2904 80.7195 30.032 79.5204 30.5599C78.4091 31.0117 77.2181 31.2387 76.0174 31.2274C73.1943 31.2274 70.7515 30.1399 68.6892 27.9648C66.6269 25.7898 65.597 23.0841 65.5997 19.8479C65.5997 16.4932 66.5964 13.7441 68.5898 11.6007C69.4985 10.5753 70.6195 9.75712 71.8761 9.20219C73.1327 8.64725 74.4952 8.36866 75.8703 8.38548C77.1396 8.37706 78.397 8.62849 79.5642 9.1241C80.759 9.651 81.8394 10.4036 82.7451 11.34L82.7412 8.94241ZM76.9717 13.4176C76.1796 13.3978 75.3925 13.5469 74.6634 13.8549C73.9343 14.1629 73.2801 14.6225 72.7449 15.2029C71.6015 16.4522 70.9975 18.0975 71.063 19.7847C70.9993 21.4928 71.615 23.1571 72.7768 24.4179C73.3087 25.0012 73.9598 25.4651 74.6866 25.7784C75.4135 26.0918 76.1993 26.2474 76.9915 26.2348C77.7926 26.2562 78.5891 26.108 79.3281 25.8002C80.0671 25.4924 80.7318 25.032 81.2779 24.4495C82.4125 23.2593 82.9797 21.6991 82.9797 19.7689C82.9797 17.8783 82.4125 16.347 81.2779 15.1753C80.7242 14.5988 80.0547 14.1445 79.3129 13.8417C78.571 13.5389 77.7734 13.3944 76.9717 13.4176Z" fill="white"/>
<path id="Vector_13" d="M93.7354 8.9424H99.2226V11.4387C100.093 10.4647 101.159 9.68289 102.352 9.14384C103.53 8.63287 104.804 8.37446 106.089 8.38547C107.393 8.36829 108.676 8.71449 109.791 9.38478C110.933 10.0931 111.853 11.1022 112.451 12.2998C113.261 11.0785 114.364 10.0767 115.66 9.38478C116.941 8.71542 118.368 8.37207 119.815 8.38547C121.258 8.35538 122.68 8.72905 123.919 9.46378C125.041 10.1176 125.93 11.1018 126.464 12.28C126.981 13.4386 127.239 15.3227 127.239 17.9322V30.6705H121.712V19.6465C121.712 17.1844 121.403 15.5176 120.786 14.646C120.471 14.2118 120.051 13.8641 119.564 13.6355C119.077 13.4068 118.54 13.3046 118.002 13.3386C117.098 13.326 116.214 13.603 115.481 14.1285C114.721 14.6852 114.144 15.4537 113.823 16.3365C113.463 17.2739 113.282 18.7814 113.282 20.8591V30.6626H107.756V20.1441C107.756 18.2008 107.611 16.7934 107.322 15.9218C107.104 15.1538 106.649 14.4729 106.022 13.9745C105.413 13.5383 104.677 13.3134 103.926 13.3346C103.032 13.3232 102.159 13.6004 101.437 14.1246C100.665 14.6984 100.082 15.4877 99.7633 16.3918C99.3949 17.3635 99.2106 18.8947 99.2106 20.9855V30.6507H93.7234L93.7354 8.9424Z" fill="white"/>
<path id="Vector_14" d="M134.607 0.000222826C135.069 -0.00508373 135.527 0.0844429 135.953 0.263195C136.378 0.441948 136.762 0.706076 137.08 1.03903C137.415 1.36698 137.679 1.75911 137.857 2.19162C138.035 2.62413 138.122 3.088 138.114 3.55508C138.124 4.01615 138.039 4.47441 137.866 4.90213C137.692 5.32986 137.433 5.71814 137.104 6.04347C136.79 6.37275 136.41 6.63394 135.989 6.81066C135.569 6.98738 135.116 7.07582 134.659 7.07043C134.192 7.07753 133.729 6.98814 133.299 6.80795C132.869 6.62775 132.482 6.36068 132.162 6.02372C131.826 5.69002 131.561 5.29237 131.383 4.85461C131.206 4.41685 131.119 3.94798 131.128 3.47608C131.127 2.55596 131.493 1.67304 132.147 1.02131C132.801 0.36957 133.689 0.0023158 134.615 0.000222826H134.607ZM131.863 8.9466H137.351V30.6707H131.863V8.9466Z" fill="white"/>
<path id="Vector_15" d="M142.337 8.94288H147.84V11.1785C148.848 10.2864 149.987 9.55365 151.22 9.00608C152.203 8.60334 153.257 8.39538 154.321 8.39385C155.347 8.37501 156.367 8.56543 157.316 8.95335C158.265 9.34127 159.124 9.91844 159.84 10.6492C161.11 11.9263 161.745 13.817 161.745 16.3212V30.6749H156.305V21.1558C156.305 18.562 156.189 16.8399 155.955 15.9894C155.774 15.225 155.344 14.5417 154.731 14.0461C154.109 13.5879 153.349 13.3526 152.575 13.3785C151.513 13.3594 150.486 13.7567 149.717 14.4845C148.87 15.3178 148.294 16.384 148.062 17.5456C147.914 18.225 147.84 19.6943 147.84 21.9536V30.667H142.353L142.337 8.94288Z" fill="white"/>
<path id="Vector_16" d="M183.176 8.94227H188.664V30.6664H183.176V28.3715C182.246 29.2898 181.155 30.0314 179.956 30.5597C178.844 31.0116 177.653 31.2385 176.453 31.2273C173.63 31.2273 171.187 30.1397 169.125 27.9647C167.062 25.7896 166.031 23.084 166.031 19.8478C166.031 16.493 167.028 13.744 169.021 11.6005C169.928 10.5767 171.048 9.75941 172.302 9.20454C173.556 8.64966 174.917 8.37023 176.29 8.38535C177.559 8.37692 178.816 8.62835 179.984 9.12397C181.178 9.65086 182.259 10.4034 183.165 11.3398L183.176 8.94227ZM177.407 13.4174C176.615 13.3977 175.828 13.5468 175.099 13.8548C174.37 14.1627 173.715 14.6224 173.18 15.2028C172.037 16.4521 171.433 18.0974 171.498 19.7846C171.435 21.4926 172.051 23.1567 173.212 24.4177C173.744 25.0016 174.396 25.4658 175.124 25.7791C175.851 26.0925 176.638 26.2478 177.431 26.2347C178.232 26.2558 179.028 26.1075 179.767 25.7997C180.506 25.4919 181.171 25.0316 181.717 24.4493C182.852 23.2591 183.419 21.6989 183.419 19.7688C183.419 17.8781 182.852 16.3469 181.717 15.1751C181.163 14.5984 180.493 14.1439 179.75 13.8411C179.008 13.5383 178.209 13.3939 177.407 13.4174Z" fill="white"/>
<path id="Vector_17" d="M207.598 11.9684L204.203 15.3415C202.822 13.9828 201.569 13.3034 200.445 13.3034C199.933 13.277 199.425 13.4155 198.998 13.6984C198.839 13.806 198.709 13.9502 198.618 14.1187C198.527 14.2872 198.479 14.475 198.477 14.6661C198.484 14.9611 198.602 15.2427 198.807 15.4561C199.297 15.8749 199.849 16.2147 200.445 16.4633L202.453 17.4981C204.574 18.5356 206.032 19.5889 206.827 20.658C207.742 21.9685 208.149 23.5633 207.974 25.1485C207.799 26.7338 207.052 28.2026 205.873 29.2844C204.447 30.5747 202.534 31.2199 200.135 31.2199C198.654 31.2638 197.185 30.9487 195.854 30.3018C194.523 29.6548 193.371 28.6956 192.497 27.507L195.873 23.8534C196.506 24.5905 197.274 25.2028 198.135 25.6585C198.835 26.0699 199.625 26.3058 200.437 26.3458C201.063 26.3767 201.68 26.1941 202.187 25.8283C202.383 25.6962 202.545 25.5202 202.661 25.3144C202.776 25.1086 202.841 24.8787 202.851 24.6434C202.851 23.806 202.056 22.9871 200.465 22.1866L198.616 21.2663C195.064 19.4941 193.288 17.2769 193.288 14.6148C193.279 13.7816 193.453 12.9564 193.796 12.1962C194.139 11.4359 194.644 10.7585 195.276 10.2107C196.601 8.99414 198.307 8.38586 200.393 8.38586C201.793 8.37863 203.175 8.70051 204.426 9.3252C205.677 9.94989 206.761 10.8597 207.59 11.9802L207.598 11.9684Z" fill="white"/>
</g>
<defs>
<clipPath id="clip0_329_371">
<rect width="208" height="40" fill="white"/>
</clipPath>
</defs>
</svg>
