<svg id="Capa_1" data-name="Capa 1" xmlns="http://www.w3.org/2000/svg" viewBox="0 0 523.11 101.27"><defs><style>.cls-1{fill:#fff;}.cls-2{fill:#bf327a;}.cls-3{fill:#d27933;}.cls-4{fill:#83af44;}.cls-5{fill:#001c46;}</style></defs><title>Logo_elamina</title><path class="cls-1" d="M110.45,107.3c12.33,0,24.66-.06,37,0,2.88,0,3.72-.74,3.09-3.71C148.69,95,142,89.87,131.78,89.82c-16.15-.08-32.31-.19-48.46.09C79.16,90,77.79,88.6,77,84.7c-2.68-13.44-5.65-26.82-8.72-40.17C66.5,36.75,60.45,31.63,53,31.47c-8.07-.17-16.15-.05-24.23,0a8.08,8.08,0,0,0-7.74,5,8.51,8.51,0,0,0,6.57,12.19c5.76,1,11.61.58,17.39.29,4.32-.22,5.74,1.35,6.55,5.39C54.3,68,57.39,81.7,60.5,95.34c1.87,8.19,6.76,11.94,15.1,12Q93,107.32,110.45,107.3Z" transform="translate(-20.19 -29.7)"/><path class="cls-1" d="M108.65,31.63c-5.8,0-11.61-.15-17.41,0-4.32.15-10.32-2-12.49,1s-.63,8.7-.82,13.21c-.09,2.1.52,3,2.86,3,13.59-.1,27.18.09,40.77-.09,8.75-.12,15.77-6,17.19-13.64.48-2.56-.1-3.57-2.91-3.53C126.77,31.72,117.71,31.64,108.65,31.63Z" transform="translate(-20.19 -29.7)"/><path class="cls-1" d="M108.51,76.41c4.95,0,9.89,0,14.84,0s7.8-2.66,7.93-6.88-2.68-7.09-7.62-7.14c-10.17-.09-20.35-.07-30.53,0-4.49,0-7.46,2.85-7.55,6.86-.1,4.2,3,7.1,7.67,7.15C98.33,76.45,103.42,76.41,108.51,76.41Z" transform="translate(-20.19 -29.7)"/><path class="cls-1" d="M91.09,131a7.92,7.92,0,0,0,7.81-8.29,8.15,8.15,0,0,0-8.43-8.2,8.27,8.27,0,0,0-8.07,8.17C82.39,127.73,85.86,131,91.09,131Z" transform="translate(-20.19 -29.7)"/><path class="cls-1" d="M124.31,131c4.85,0,8.18-3.39,8.14-8.3a8,8,0,0,0-8-8.11c-4.88-.13-8.23,3.15-8.29,8.12A7.76,7.76,0,0,0,124.31,131Z" transform="translate(-20.19 -29.7)"/><path class="cls-2" d="M110.45,107.3q-17.43,0-34.86,0c-8.33,0-13.23-3.76-15.1-12C57.39,81.7,54.3,68,51.56,54.33c-.81-4-2.23-5.61-6.55-5.39-5.77.29-11.63.69-17.39-.29a8.51,8.51,0,0,1-6.57-12.19,8.08,8.08,0,0,1,7.74-5c8.08,0,16.16-.15,24.23,0,7.43.16,13.47,5.27,15.26,13.06,3.07,13.35,6,26.74,8.72,40.17.78,3.89,2.14,5.28,6.31,5.21,16.15-.28,32.31-.16,48.46-.09,10.24,0,16.92,5.18,18.75,13.81.63,3-.22,3.73-3.09,3.71C135.11,107.23,122.78,107.3,110.45,107.3Z" transform="translate(-20.19 -29.7)"/><path class="cls-3" d="M108.65,31.63c9.06,0,18.12.09,27.18,0,2.81,0,3.39,1,2.91,3.53-1.42,7.65-8.44,13.53-17.19,13.64-13.59.18-27.18,0-40.77.09-2.33,0-2.94-.89-2.86-3,.18-4.51-1.36-10.19.82-13.21s8.18-.83,12.49-1C97,31.48,102.85,31.63,108.65,31.63Z" transform="translate(-20.19 -29.7)"/><path class="cls-4" d="M108.51,76.41c-5.09,0-10.18,0-15.26,0-4.7,0-7.76-3-7.67-7.15.09-4,3.06-6.83,7.55-6.86,10.18-.07,20.35-.09,30.53,0,4.94,0,7.74,2.82,7.62,7.14s-3.11,6.85-7.93,6.88S113.46,76.41,108.51,76.41Z" transform="translate(-20.19 -29.7)"/><path class="cls-4" d="M91.09,131c-5.23.07-8.7-3.24-8.69-8.32a8.27,8.27,0,0,1,8.07-8.17,8.15,8.15,0,0,1,8.43,8.2A7.92,7.92,0,0,1,91.09,131Z" transform="translate(-20.19 -29.7)"/><path class="cls-4" d="M124.31,131a7.76,7.76,0,0,1-8.13-8.28c.06-5,3.41-8.26,8.29-8.12a8,8,0,0,1,8,8.11C132.49,127.57,129.16,131,124.31,131Z" transform="translate(-20.19 -29.7)"/><path class="cls-5" d="M161.35,31.11h13.8v76.23h-13.8Z" transform="translate(-20.19 -29.7)"/><path class="cls-5" d="M228.28,52.34h13.8v55h-13.8v-5.81a27,27,0,0,1-8.1,5.54,22.69,22.69,0,0,1-8.81,1.69q-10.65,0-18.43-8.26t-7.77-20.55q0-12.74,7.52-20.88A24,24,0,0,1,211,50.93a23.24,23.24,0,0,1,9.29,1.87,25.37,25.37,0,0,1,8,5.61ZM213.77,63.67a13.94,13.94,0,0,0-10.63,4.52,16.31,16.31,0,0,0-4.23,11.6,16.47,16.47,0,0,0,4.31,11.73,14,14,0,0,0,10.6,4.6A14.21,14.21,0,0,0,224.6,91.6q4.28-4.52,4.28-11.85,0-7.18-4.28-11.63A14.39,14.39,0,0,0,213.77,63.67Z" transform="translate(-20.19 -29.7)"/><path class="cls-5" d="M255.93,52.34h13.8v6.32a23.56,23.56,0,0,1,7.87-5.81A23,23,0,0,1,287,50.93a17.54,17.54,0,0,1,9.31,2.53A18.28,18.28,0,0,1,303,60.84a22.29,22.29,0,0,1,8.07-7.38,22,22,0,0,1,10.45-2.53,19.34,19.34,0,0,1,10.32,2.73,15.77,15.77,0,0,1,6.4,7.13q1.95,4.4,1.95,14.31v32.25h-13.9V79.44q0-9.35-2.33-12.66a8,8,0,0,0-7-3.31,10.58,10.58,0,0,0-6.34,2,12,12,0,0,0-4.17,5.59q-1.36,3.56-1.36,11.45v24.82h-13.9V80.7q0-7.38-1.09-10.69a9.68,9.68,0,0,0-3.27-4.93,8.59,8.59,0,0,0-5.27-1.62,10.38,10.38,0,0,0-6.26,2,12.21,12.21,0,0,0-4.21,5.74q-1.39,3.69-1.39,11.63v24.47h-13.8Z" transform="translate(-20.19 -29.7)"/><path class="cls-5" d="M358.72,29.7a8.44,8.44,0,0,1,6.22,2.63,8.73,8.73,0,0,1,2.6,6.37A8.63,8.63,0,0,1,365,45a8.34,8.34,0,0,1-6.15,2.6,8.46,8.46,0,0,1-6.28-2.65,8.88,8.88,0,0,1-2.6-6.45,8.79,8.79,0,0,1,8.77-8.8Zm-6.9,22.65h13.8v55h-13.8Z" transform="translate(-20.19 -29.7)"/><path class="cls-5" d="M378.16,52.34H392V58a33.08,33.08,0,0,1,8.5-5.5,20.55,20.55,0,0,1,7.8-1.55,18.88,18.88,0,0,1,13.88,5.71q4.79,4.85,4.79,14.36v36.34H413.29V83.26q0-9.85-.88-13.08a9,9,0,0,0-3.08-4.92,8.61,8.61,0,0,0-5.42-1.69,10.16,10.16,0,0,0-7.19,2.8,15,15,0,0,0-4.16,7.75Q392,76.7,392,85.28v22.06h-13.8Z" transform="translate(-20.19 -29.7)"/><path class="cls-5" d="M480.87,52.34h13.8v55h-13.8v-5.81a27.06,27.06,0,0,1-8.1,5.54,22.69,22.69,0,0,1-8.81,1.69q-10.65,0-18.43-8.26t-7.78-20.55q0-12.74,7.52-20.88a24,24,0,0,1,18.28-8.14,23.24,23.24,0,0,1,9.29,1.87,25.37,25.37,0,0,1,8,5.61ZM466.36,63.67a13.94,13.94,0,0,0-10.63,4.52,16.31,16.31,0,0,0-4.23,11.6,16.48,16.48,0,0,0,4.31,11.73,14,14,0,0,0,10.61,4.6A14.22,14.22,0,0,0,477.2,91.6q4.28-4.52,4.28-11.85,0-7.18-4.28-11.63A14.4,14.4,0,0,0,466.36,63.67Z" transform="translate(-20.19 -29.7)"/><path class="cls-5" d="M542.29,60l-8.54,8.54q-5.21-5.16-9.45-5.16a6,6,0,0,0-3.64,1,3,3,0,0,0-1.31,2.45,3,3,0,0,0,.83,2,15.53,15.53,0,0,0,4.12,2.55L529.35,74q8,3.94,11,8a16.74,16.74,0,0,1-2.4,21.84q-5.38,4.9-14.43,4.9a22.94,22.94,0,0,1-19.21-9.4l8.49-9.25a19.6,19.6,0,0,0,5.69,4.57,12.59,12.59,0,0,0,5.79,1.74,6.9,6.9,0,0,0,4.4-1.31,3.81,3.81,0,0,0,1.67-3q0-3.18-6-6.22l-4.65-2.33Q506.3,76.81,506.3,66.7a14.6,14.6,0,0,1,5-11.15q5-4.62,12.87-4.62a22.32,22.32,0,0,1,18.1,9.1Z" transform="translate(-20.19 -29.7)"/></svg>